<svg id="Capa_1" data-name="Capa 1" xmlns="http://www.w3.org/2000/svg" viewBox="0 0 1159.61 1046.22"><defs><style>.cls-1{fill:#d8edf4;}.cls-2{fill:#cde9f3;}</style></defs><path class="cls-1" d="M805.44,462.29c5.3,87.72-6.65,172.24-45.54,252.07C709.56,817.68,631.93,895,533.49,952.3c-88.1,51.33-182.57,80.51-284.61,90.83-84.58,8.55-166.54.61-248.52-17.35V274.42c14.3-2.69,20.65,8.45,28,16.83,106,120.88,240.91,188.64,398.18,211.29,117.32,16.9,233.34,7.61,345.6-34C782.66,464.62,793.11,457.68,805.44,462.29Z" transform="translate(0 -0.35)"/><path class="cls-2" d="M805.44,462.29C731.47,495,654,512.26,573.29,516c-94.16,4.33-186.6-4.58-275.83-36.51-97.76-35-184.31-88-257.31-162.44C26.53,303.14,18.67,283.89.36,274.42.36,188.55.71,102.67,0,16.81-.11,3.38,3,.29,16.46.35,147.06.94,277.65.7,408.24.7,595.56,49,779.46,225.23,808.5,434.36c1.34,9.62,4.9,19.39-3.07,27.94Z" transform="translate(0 -0.35)"/><path class="cls-1" d="M805.43,462.3C796.3,364.56,758.14,278.68,698,202.07,624.39,108.2,527.45,47.46,417,6.15c-3.17-1.19-5.87-3.6-8.8-5.45h751.37c-8.2,114.46-50.92,214-125.9,301-57.44,66.66-127.77,114.39-206.06,152C820.51,457.12,812.85,459.46,805.43,462.3Z" transform="translate(0 -0.35)"/></svg>