<svg id="Capa_1" data-name="Capa 1" xmlns="http://www.w3.org/2000/svg" viewBox="0 0 1181.54 952.62"><defs><style>.cls-1{fill:#e5e5e5;}.cls-2{fill:#fefefe;}.cls-3{fill:#3f3d55;}.cls-4{fill:#3f3d52;}.cls-5{fill:#3d3b49;}.cls-6{fill:#3e3c49;}.cls-7{fill:#cbcbcb;}.cls-8{fill:#e5e5f0;}.cls-9{fill:#e5e4ec;}.cls-10{fill:#e6e4ec;}.cls-11{fill:#42414c;}.cls-12{fill:#e5e5ef;}.cls-13{fill:#fbfbfb;}.cls-14{fill:#2e2e40;}.cls-15{fill:#325192;}.cls-16{fill:#fdb7b7;}.cls-17{fill:#2f2e40;}.cls-18{fill:#2e2e3f;}.cls-19{fill:#fcb7b6;}.cls-20{fill:#fbb8b7;}.cls-21{fill:#3e3b4d;}.cls-22{fill:#fbb7b7;}.cls-23{fill:#f6bbba;}.cls-24{fill:#f0bbc0;}.cls-25{fill:#3f2f3c;}.cls-26{fill:#f4c0c0;}.cls-27{fill:#f2c0c1;}.cls-28{fill:#f0c4c2;}.cls-29{fill:#f3b5bc;}.cls-30{fill:#fdf1ee;}.cls-31{fill:#4c556e;}.cls-32{fill:#403d4e;}.cls-33{fill:#fdfdfd;}.cls-34{fill:#fcfdfa;}.cls-35{fill:#403f4f;}.cls-36{fill:#3f3d4c;}.cls-37{fill:#fbfcf9;}.cls-38{fill:#fcfbfc;}.cls-39{fill:#bdbccb;}.cls-40{fill:#fcb7b7;}.cls-41{fill:#28304b;}.cls-42{fill:#3d3c53;}.cls-43{fill:#ebb2bc;}.cls-44{fill:#354b7f;}.cls-45{fill:#3d3041;}.cls-46{fill:#2c3050;}.cls-47{fill:#2a3350;}.cls-48{fill:#293154;}.cls-49{fill:#f7fef9;}.cls-50{fill:#fdfcfe;}.cls-51{fill:#f5faf7;}.cls-52{fill:#35508b;}.cls-53{fill:#39538a;}.cls-54{fill:#f6fbf8;}.cls-55{fill:#3e5488;}.cls-56{fill:#3e517c;}.cls-57{fill:#3b4f82;}</style></defs><path class="cls-1" d="M587.82,64.1h29.54c5.9.89,11.87.62,17.8,1.1,18.28,1.47,35.63,6.61,52.59,13.18a233.6,233.6,0,0,1,88.79,60.46c9.33,10.17,18.27,20.8,24.71,33.21.43,7.92.13,15.84.18,23.75,0,2.06-.33,3.94-2.27,5.16s-2.4,3-2.3,5.14c.52,6.89.33,13.79.26,20.69,0,3.79.34,7.32,3.34,10.05.18,8.37-.14,16.75.13,25.12.1,3.19-2.27,4.85-3.31,7.31a8.32,8.32,0,0,1-1.2,1.84c-1.55,1.68-1.07,3.78-1.07,5.73,0,15.68,0,31.35,0,47,0,2,.33,4.07-.74,5.88-1.72,2.89-.35,3.84,2.38,4.18,1.5.19,3.11.23,4.14,1.68,1.94,6.29,1.15,12.68.59,19-.22,2.57-2.64,3.56-4.51,4.84-1.78,1-1.84,2.63-1.84,4.37q0,25.72,0,51.45a4.61,4.61,0,0,0,.92,3.44c1.31,1.54,3.71,1.89,4.48,4-1,6.42-5.8,10.68-9.29,15.63-2.73,3.88-5.91,7.46-8.86,11.2s-3,3.78,1,6.66A100.75,100.75,0,0,1,796.49,467a14,14,0,0,1,3.52,4.81c.7,2,.51,4,.52,6q0,91.78,0,183.56a28.55,28.55,0,0,1-.23,5.06c-.88,2.74-2.75,4.71-4.87,6.56-21.38,18.65-46.24,29.28-74.37,32.71-9.24,1.13-8.73-.62-8.73,10q0,143.89,0,287.78c0,3.06.34,6.16-.6,9.16a3.48,3.48,0,0,1-1,1.37,1.36,1.36,0,0,1-1.5-.33c-1.82-2.8-1.18-6-1.18-9Q708,862.9,708,721.25c0-10.62.11-21.23,0-31.84-.07-5.12,1.8-8.64,6.19-11.44,14-9,28.44-17.16,42.36-26.24,4.07-2.66,8.51-4.92,11.63-9.41-2.22-1-3.82.19-5.38.8-4.62,1.81-8.65,4.69-12.75,7.39-10.67,7-21.78,13.32-32.51,20.25-2.13,1.37-4.4,3.61-7.1,2.32-3-1.45-2.35-4.76-2.36-7.44q-.09-39,0-78c0-8.47,0-16.92-1.93-25.75-1.17,6.73-2.2,13-2.2,19.46q0,24.69,0,49.37c0,1.23,0,2.46-.06,3.69-.4,5.15-2,6-6.4,3.46-8.77-5.12-17.26-10.69-25.92-16-2.69-1.65-5.42-3.35-9.34-3.1,1.1,2.93,3.14,4.22,5.14,5.53,3.46,2.28,7.1,4.34,10.35,6.92,2.86,2.28,2.65,4.72-.57,5.31-10.91,2-18.8,9.58-28,14.74-11.52,6.47-22.17,14.4-33.89,20.56-3.24-1.29-5.13-4.12-7.36-6.57-.68-2.42-.5-4.89-.5-7.35q0-107.73-.13-215.48c0-6.93,2.14-11.34,8.12-15.05,16.6-10.29,33.54-20,49.9-30.69,4.76-3.1,9.84-5.83,13.38-10.46,1.06-1.39,2.77-3.08,1.46-4.87-1.11-1.51-3.14-.58-4.77-.28-4.48.81-8.41,2.9-12.19,5.31-15.15,9.71-30.63,18.9-45.82,28.54-2.37,1.51-5,4.26-7.88,2.67-3.14-1.72-2-5.51-2-8.47-.07-25.69,0-51.37,0-77.06,0-18-.9-35.95-5.18-53.05a214.44,214.44,0,0,0-3.9,28.4c-.21,3.22-.46,6.43-.46,9.66V465.69a45.48,45.48,0,0,1-.21,6.91c-.67,4.24-2.71,5.39-6.42,3.33s-7.54-4.15-11.18-6.47c-23-14.63-46.21-28.78-69.42-43a45.72,45.72,0,0,0-15-5.87c-.91-.18-2-.41-2.58.4s.13,1.75.6,2.5a34.45,34.45,0,0,0,11.24,10.74c24.22,15.21,48.67,30.06,72.93,45.2,5.09,3.18,10.1,6.48,15.24,9.57a8.87,8.87,0,0,1,4.73,8.35c0,1.69,0,3.38,0,5.08q0,250.77,0,501.55c0,3,.48,6.17-.87,9.1a1.88,1.88,0,0,1-1.38.92,2.59,2.59,0,0,1-1.26-1.14c-1.26-3-.83-6.06-.83-9.11q0-154.9,0-309.81c0-2.25.49-4.58-.54-6.74-1.54-.28-2.31.84-3.24,1.55-22.07,16.83-46.77,26.87-74.59,28.7-4.29.28-4.85,2.71-4.85,6.17q0,33.42,0,66.85c0,2.59.3,5.25-1,7.68-1.46,1.54-2.12.28-2.62-.86-.83-1.88-.65-3.93-.65-5.92,0-40.89.08-81.79-.1-122.68,0-6.92,2.27-11.48,8.43-14.93,9.11-5.11,17.9-10.79,26.78-16.31,2.85-1.77,5.58-3.69,7.46-7.13-3.58-.93-6,.83-8.35,2.28-7.07,4.35-14.16,8.67-21.07,13.28a41.66,41.66,0,0,1-7.24,4c-2.93,1.21-4.74.27-5.42-2.84a30.11,30.11,0,0,1-.49-6.43c0-10.6.05-21.21,0-31.82-.08-12.47.85-25-1.72-36-3.9,19.24-2.12,40.05-2.39,60.76-.19,14.15,0,28.29,0,42.44,0,1.38.05,2.77-.08,4.14-.44,4.75-2.22,5.91-6.29,3.47-7.51-4.5-14.86-9.28-22.41-13.71-8.34-4.91-16.16-10.67-24.89-14.92a14.92,14.92,0,0,0-6.23-1.81c1.83,3.61,4.64,5.37,7.44,7.14,15.46,9.78,31.1,19.28,46.62,29,4.31,2.69,6.28,6,5.86,11-.46,5.32.86,10.75-.94,16-1.25,1.6-3,1.25-4.68,1.14-39.9-2.7-72.35-19.83-97.87-50.46-13-15.65-21.42-33.59-26.67-53.14-1.61-6-1.61-12.13-2.07-18.24-.11-1.5.48-3.07-.45-4.48v-20.3c1.13-3,.22-6.06.59-9.09,5-41.5,26.37-72.65,60.33-95.88,5.31-3.63,5.36-3.72,1-8.4A234.67,234.67,0,0,1,382.78,379c-6.36-17.08-11.3-34.55-12.5-52.77-1.21-18.39-2-36.92,0-55.24,7-65.49,37.69-118.11,89-158.82A225.18,225.18,0,0,1,563.62,66c6.53-1.1,13.14-1,19.72-1.46C584.84,64.45,586.41,65,587.82,64.1Z" transform="translate(-369 -64)"/><path class="cls-2" d="M800,171.14c-5.55-6.92-10.23-14.47-15.9-21.32a244.44,244.44,0,0,0-36-35.29,248.32,248.32,0,0,0-42.26-26.76,214,214,0,0,0-43.44-16.19A202.2,202.2,0,0,0,619,64.9c-.54,0-1.06-.52-1.59-.8q464.34,0,928.7-.1c3.74,0,4.48.75,4.48,4.49q-.16,472.62-.1,945.26c-1.33,1.32-3,1.35-4.74,1.35-65.59,0-131.17.1-196.76-.06a9,9,0,0,1-.91-.09c-2.74-.57-3.32-2.91-4.09-5.08-2.85-8-8.21-13.17-16.85-14.49-3.3-1-6.68-.41-10-.58-1.95-.1-4,.35-5.74-1-1.78-3.06-.71-6.29-.31-9.38.52-4.06.78-8.21,2.4-12.07.26-.37.5-.88.92-1,6.3-1.84,7.37-6.59,7.82-12.41,1.24-16.38,2.15-32.79,3.38-49.18,1.82-24,2.77-48.18,6.7-72,.45-2.77.11-6.78,3.37-7.48s4.52,3.16,6,5.52c9.81,16.24,17.16,33.68,24.66,51.05,11.46,26.55,22,53.46,32.43,80.43,2,5.09,2.37,5.27,7.91,4,2.24-.52,4.44-1.29,6.79-1.21,2.16.17,3.55,1.49,4.69,3.17,1.22,2,2,4.38,3.8,6.07,1.44,2.91,3.93,5.27,4.44,8.65-1.24,2.48-.78,4.68.85,6.86,2,2.71,3.68,5.66,5.44,8.54,1.46,2.38,3.18,3.07,5.7,1.4,13.06-8.64,26.31-17,39.41-25.57,2.69-1.76,2-3.2.22-5.08-6-6.23-16.53-7.16-24.66-2.2-3.62,2.21-6.72,5.49-11.33,5.79-4.43-2.92-6.06-7.32-6.49-12.35a3.85,3.85,0,0,1,2.89-2.1c4.65-.77,4.84-3.6,4-7.44q-7.74-34.15-15.94-68.21-13.06-54.45-26.06-108.91a16.59,16.59,0,0,1-.69-5c.37-4.51,5-4.22,7.34-6.54a9.86,9.86,0,0,1,.92-.91c3.1-3,4.2-6.54,2.82-10.72a16.28,16.28,0,0,0-1.91-4.15c-4.93-7.29-4.87-15.42-4-23.69a8.24,8.24,0,0,0-.45-4.25c-4.29-31.66-10.39-63-16-94.45-2.21-12.4-5-24.71-6.73-37.17-1.27-8.94-1.38-18-4.24-26.75a186.44,186.44,0,0,0-9.63-23.9,20,20,0,0,0-12.5-10.84,41.71,41.71,0,0,1-10.07-4.49,18.21,18.21,0,0,0-9.21-2.54c-.5-.07-1-.17-1.48-.28a22.13,22.13,0,0,0-5.83-.94c-15.66-3.26-31.35-6.33-47-9.44a6.62,6.62,0,0,0-4,.31c-2.76,1.28-4.39,3.75-6.31,5.93s-3.72,5-7.29,5.06c-2.19-1.08-2.23-3.2-2.25-5.14-.17-14.23-.14-28.45,0-42.68a8,8,0,0,1,1-4.39c2.42-1.88,2.78.61,3.42,1.81a78.67,78.67,0,0,0,6,10.26c6.54,8.92,15.53,14.47,25.43,18.81,7.36,3.53,15.24,2.91,23,2.94,1.77.28,3.49.3,4.94-1,2.16-1.29,4.34-2.57,6.55-3.76a12.64,12.64,0,0,0,4.26-3.42c.42-.46.86-.9,1.31-1.32,1.9-1.91,4.19-3.49,5-6.27a6.4,6.4,0,0,1,.64-1.18c5.89-10.32,5.9-21,1.76-31.83a5.34,5.34,0,0,1-.64-1.26c-.4-1.38-.93-2.76,0-4.15,5.42-3.16,9-7.31,7.89-14.16a17.53,17.53,0,0,0-7.12-11.45,65.71,65.71,0,0,0-31.6-13,28.26,28.26,0,0,0-18.2,3.8c-11.32,6.71-21.36,14.94-28.67,26.13-.8,1.23-1.25,3.41-3.66,2.35-1.47-1.84-1.36-4-1.37-6.18-.06-9.84,0-19.67,0-29.51,0-3.51.34-6.75,4-8.57,1.65-.82,2-2.61,2.25-4.32a45.12,45.12,0,0,0,.16-5.07q0-45.89,0-91.77c0-4.13-.14-7.94-4.27-10.39-1.69-1-2-3-2.1-4.92-.17-2.15-.12-4.31-.12-6.46q0-71.48,0-142.95a65.77,65.77,0,0,0-3.37-22.22C1252.66,96.75,1241.7,86,1226,80.1c-1.85-.84-3.93-1-5.79-1.85a8.41,8.41,0,0,0-3.56-.83,10,10,0,0,1-3.12-.47c-2.43-.66-4.9-.4-7.35-.4q-174.33,0-348.65.09c-29.33.07-50.83,18.67-55.09,45.82a25.44,25.44,0,0,0-1,7.72q.07,17.49,0,35C801.42,167.22,802,169.53,800,171.14Z" transform="translate(-369 -64)"/><path class="cls-3" d="M1264.14,471.48c-1.47,1-1,2.48-1,3.78,0,15.05-.06,30.1,0,45.14,0,.94-1.65,4.17,2,2.67.92,2-.71,2.81-2,3.52-8,4.5-15.52,9.93-24,13.67-1.84.82-4.16,3-5.71-.58a59,59,0,0,1-.21-8.3q0-194.49,0-389c0-2.61.15-5.23-.63-7.78a9.47,9.47,0,0,1-.28-2.49,8.71,8.71,0,0,0-.87-4.51c-3.73-14.75-18.63-26.89-35.78-26.08-14.7.7-29.45.12-44.17.16-5.45,0-5.53.2-5.78,5.74-.56,12-6.15,20.95-16.67,26.78a10.82,10.82,0,0,1-6.12,1.76,26.74,26.74,0,0,0-5.51-.37q-88.06,0-176.14,0a17.21,17.21,0,0,0-4.12.25c-4.29.3-7.73-1.79-10.91-4.21a30.3,30.3,0,0,1-12.58-24.47c-.13-5.24-.34-5.46-5.54-5.47-14.89,0-29.78-.14-44.66,0-13.23.14-26.14,9.48-30.81,22-1.07,2.87-1.68,5.91-3.18,8.63a8.86,8.86,0,0,0-1.44,5.26c0,1.54,0,3.08,0,4.61V949.4c0,4.74-.09,9.51,1.59,14.05a4.19,4.19,0,0,1,1.5,3.31c.61.71-2.38,2.31.63,2.44a2.31,2.31,0,0,1,1.46,1,41.41,41.41,0,0,0,18.67,17.55,3.05,3.05,0,0,1,1.19,1.34c1.17,2.55,3,1.71,4.78.87a7.06,7.06,0,0,1,3.54.64,15.69,15.69,0,0,0,5.49.51h327.14a14.85,14.85,0,0,0,4.56-.35c4-1.17,8.15-1.54,12-3.21,13.49-5.87,20.8-16.2,22.14-30.83a27,27,0,0,0,.52-7.34q0-121,0-242c0-2.59-.39-5.23.54-7.76,1.67-2.14,3.33-1,4.74.21,6.69,5.55,11.17,11.77,9.42,21.44s-1.89,19.86-2.48,29.83c-.22,3.87,1,6.59,4.91,7.77,4.84,1.49,6.91,4.68,7.47,9.8,2,18,3.58,36.1,6.66,54a14.53,14.53,0,0,1-.09,5,25.62,25.62,0,0,0-.79,7.7q0,15.33,0,30.66a23,23,0,0,0,.77,6.77,27.46,27.46,0,0,1,.43,5.5c0,26.88.29,53.76-.07,80.63-.29,22.11-9.16,39.81-28.66,51.39a14.45,14.45,0,0,1-4.63,2.12,8.06,8.06,0,0,1,4.85.2c1.65.74,1.37,2.49,2,3.79H705a2.17,2.17,0,0,1-.48-2.5,1.9,1.9,0,0,1,1-.78c1.77-.48,3.25,1.1,5,.7l-.07-.35c1.8-1.49,3.87-1.44,6-1.09a28,28,0,0,0,6.83.83c36.43-.05,72.86,0,109.27-.05.84,0,1.75-.22,2.46.4-15.54-5.72-26.31-16.42-32.44-31.81-1-2.41-1.95-4.88-1.3-7.61,1.06-5.91-1.89-11.3-1.86-17.21.25-59,.15-118,.15-177.06,0-35.81-.34-71.62.08-107.43.74-64.24.24-128.47.27-192.71,0-16.28-.3-32.56-.35-48.85a45.31,45.31,0,0,1,.34-6.89c0-.3,0-.61-.08-.91-.95-1.72-3.56-1.09-4.34-3.05-1.06-.4-1.12-1.19-1.11-2.2.2-18.51,0-37,.11-55.51,0-1.35-.23-2.8.94-3.88,5.8-1.83,4.58-6.64,4.59-10.89,0-4.08-.09-8.16-.14-12.24-2-1.45-5.26-1.6-5.49-5,.29-19.64-.14-39.28.22-58.92a4.21,4.21,0,0,1,.78-1.57l.84-1c2.72-1.92,3.49-4.45,3.42-7.81-.16-7.82-.37-15.66.13-23.48-3.52-1.15-4.42-3.62-4.29-7.18.29-8,.2-16.1.27-24.15,1.12-2.34-.31-6.08,4.12-6.67,1.16-.16.58-2.5.58-3.83q0-34.37,0-68.75c0-1.66-.4-3.38.38-5,1.19-19.9,18.67-39.57,40-45a64.08,64.08,0,0,1,16-1.83q174.58,0,349.16,0c2.89,0,5.85-.47,8.66.71-1.23,1-2.67.55-4,.55q-177.18,0-354.36,0c-1,0-2.08.29-2.47,0,1,0,2.56,0,4.15,0q176.25,0,352.51-.13c5.16,0,9.82,2.71,15,1.71,23,7.43,37.6,28,37.62,53.33q.06,75.66,0,151.33c0,2.91-1,6.18,4,6.38,2.48.1,2.28,2.89,2.29,4.87q0,15.92,0,31.83,0,35.3,0,70.59c0,3.2.17,6.47-4.48,6.33-1.44,0-1.81.73-1.81,2,.07,13.22.11,26.44.21,39.66,0,.25.62.5,1,.75,1.56,1.61.93,3.47.43,5.2a27.5,27.5,0,0,0-.18,16.29C1265.05,468.25,1265.57,470,1264.14,471.48Z" transform="translate(-369 -64)"/><path class="cls-2" d="M369.09,591.07c.89,5.37,1.69,10.76,2.68,16.11a126.82,126.82,0,0,0,22.51,52.35c20.69,28.27,48.27,46.63,82.72,54,7.59,1.62,15.43,2.07,23.15,3.05,1.45,1.2,1.62,2.9,1.76,4.59s.07,3.08.07,4.61q0,139.46,0,278.92c0,3,.49,6.18-1.27,9-1.71,1.91-4,1.35-6.14,1.45q-36.49,0-73,0c-1.89.1-4-.47-5.4,1.4-14.46,0-28.92-.12-43.38.09-3.17,0-3.78-.62-3.78-3.78Q369.15,801.95,369.09,591.07Z" transform="translate(-369 -64)"/><path class="cls-2" d="M587.82,64.1c-3.51,2-7.5,1.2-11.19,1.61a243.89,243.89,0,0,0-50.89,11.67c-21.91,7.38-41.88,18.37-60.45,31.72a223.17,223.17,0,0,0-40.5,38,234.19,234.19,0,0,0-48.57,95.49,233,233,0,0,0,29.21,178.83A225,225,0,0,0,434.72,459c2.88,2.93,2.33,4.2-.82,6.08a131.43,131.43,0,0,0-40.76,38.6,136.16,136.16,0,0,0-22.31,54.93c-.7,4,.06,8.27-1.74,12.12q0-251.26-.09-502.51c0-3.46.78-4.25,4.24-4.25Q480.54,64.19,587.82,64.1Z" transform="translate(-369 -64)"/><path class="cls-4" d="M494.58,1013.9l5.52-.28c2.21-1.85,4.79-1.55,7.37-1.25a12.6,12.6,0,0,1,2.6.19,23.42,23.42,0,0,0,6.36.76q35.18,0,70.35,0a38.23,38.23,0,0,0,6-.51,3.88,3.88,0,0,1,2.52.77l-.07.35c3.19-.64,6.46-.46,9.67-.94a48.68,48.68,0,0,1,5.13-.25,8.84,8.84,0,0,1,1.62.19,22,22,0,0,0,5.49.38q38.4,0,76.79,0a21.77,21.77,0,0,0,6.38-.64,6.34,6.34,0,0,1,1.74-.14,3.33,3.33,0,0,1,3,1.37v2.61H416.16c-.81-3.79,1.81-2.7,3.72-2.63,2.41.67,4.87.3,7.3.3q31.2.06,62.4,0C491.25,1014.2,493,1014.49,494.58,1013.9Z" transform="translate(-369 -64)"/><path class="cls-4" d="M1550.44,1014.67c-.38.58.9,2-.93,1.86-1.07-.06-2.15,0-3.23,0H1347.39c-.54-1-.4-1.89.72-2.18a14.49,14.49,0,0,1,3.67-.12q97.08,0,194.14,0C1547.43,1014.23,1549,1013.85,1550.44,1014.67Z" transform="translate(-369 -64)"/><path class="cls-5" d="M1550.44,1014.67q-98.79,0-197.57.06c-1.88,0-4.49-1.3-5.48,1.79h-58.14a1.15,1.15,0,0,1,.41-1.54,6.2,6.2,0,0,1,3.48-1c17.77-.26,35.54-.07,53.32-.16l204,0Z" transform="translate(-369 -64)"/><path class="cls-3" d="M1287.4,1016.52h-47.07c-.8-.6-1.43-1.28-.5-2.21a3.54,3.54,0,0,1,2.55-.9q20.68-.25,41.38,0C1285.65,1013.44,1287.52,1013.92,1287.4,1016.52Z" transform="translate(-369 -64)"/><path class="cls-6" d="M1287.4,1016.52c-1-2.09-3-1.85-4.77-1.85-13.14,0-26.28,0-39.41.07-1,0-3.53-1.35-2.89,1.78h-1.84c-.08-.95-3.48-.74-.92-2.62,1.09-1.6,2.82-1.82,4.5-1.83,14.75-.06,29.5-.46,44.25.18a5.81,5.81,0,0,1,1.61.56c1,.66,1.73,1.45,1.32,2.78v.93Z" transform="translate(-369 -64)"/><path class="cls-2" d="M716.13,1013.9l-5.6-.31q0-151.24-.06-302.48c0-4.63.66-6.34,6-6.77a133.66,133.66,0,0,0,72.24-28c3.7-2.86,7.64-5.68,10.42-9.63a.86.86,0,0,1,1.32.66c.14,49.16,0,98.33.06,147.49q0,58.08,0,116.15c0,15-.77,30,1.61,44.83,4.22,16.94,16,29.77,34.32,37.29-.53,1-1.58.34-2.28.74a7.41,7.41,0,0,1-3.17.31H719.31A7.78,7.78,0,0,1,716.13,1013.9Z" transform="translate(-369 -64)"/><path class="cls-2" d="M509.4,1013.9l-1.81-.34c-1.11-1.08-1.06-2.48-1-3.87.55-64.35.17-128.71.11-193.07,0-6.62,2-10.8,7.76-14.21,8.83-5.26,17.63-10.61,26.26-16.21,2.8-1.82,5.65-3.58,7.56-7.08-2.93-.72-4.87.57-6.79,1.65-9.23,5.22-17.91,11.33-27.11,16.6-1.78,1-3.5,2.75-5.88,1.34,0-25.69.11-51.37-.12-77.06,0-4.66,2-5.77,5.92-6,29.33-1.72,55.1-12.34,77.56-31.18.78-.65,1.36-2,2.62-1.41s.7,1.89.75,2.91c.07,1.84,0,3.69,0,5.53q0,161,0,322.08l-1.91.32c-1.49.55-3,.29-4.55.29q-37.42,0-74.84,0C512.43,1014.19,510.88,1014.45,509.4,1013.9Z" transform="translate(-369 -64)"/><path class="cls-7" d="M609.1,1013.61c-1.18,1.13-2.47.94-3.78.29-3.09.3-6.18.84-9.22-.29V530.11c0-10.92-.13-21.84.08-32.76.06-3.35-1.09-5.28-3.91-7Q547.42,462.76,502.68,435c-5.21-3.23-8.93-7.86-12.23-12.91-1.93-3-.68-3.79,2.29-3.56,8,.62,15,4.09,21.68,8.27q34.55,21.56,69.15,43.05c3,1.85,6.33,3.05,9.09,5.38,2.06,1.74,3.37.82,3.43-1.83,0-1.23,0-2.46,0-3.69,0-52.13-.17-104.26.16-156.4a131.44,131.44,0,0,1,6.09-39.69c2.09,7.66,4.06,15.33,4.81,23.21,3.64,38.17,1.16,76.45,1.9,114.68,0,1.8-.9,4.32.6,5.23,1.82,1.09,3.58-1.16,5.15-2.13,16.73-10.29,33.37-20.72,50-31.13a28.33,28.33,0,0,1,15.66-4.61c2.73,0,3.46,1.15,2.36,3.85-3.13,7.75-10.09,11.37-16.55,15.41-17.55,11-35.26,21.7-52.88,32.58-2.62,1.63-4.49,3.46-4.48,7.26q.22,114.42.14,228.83c2.07,2,1.16,4.38.89,6.78.55-2,1.68-2.86,3.68-2.21q24.57-15.27,49.15-30.56c4.32-2.7,8.59-5.41,13.94-5.45.74,0,1.71.09,1.9-.88.21-1.13-.81-1.49-1.58-2-4-2.5-8.23-4.8-12.08-7.58-2.63-1.9-6.83-4.45-5-7.71,1.23-2.16,6.07-.42,8.72,1.16,10.13,6,20.09,12.4,30.1,18.66.89.55,1.7,1.67,2.81,1.13s.61-1.92.61-2.91c0-18.76-.07-37.52.1-56.27.06-7.47,1.48-14.82,3.37-22.5,2.39,2.09,1.82,4.64,2.27,6.86a83,83,0,0,1,1.71,16.87q-.11,43.35,0,86.71c0,1.79-.85,4.16.78,5.22s3.34-.94,4.76-1.82q20.37-12.56,40.57-25.38a36.76,36.76,0,0,1,12.65-5.32c.9-.18,1.88-.74,2.54.15.82,1.1-.16,1.93-.71,2.84-2.74,4.54-7.27,7-11.49,9.66q-23,14.49-46.14,28.62c-2.52,1.55-3,3.61-3,6.21,0,7.07,0,14.14,0,21.21l0,305.33c-1.15,1-2.42.61-3.67.28h-1l-2.82-.31c-2.29-2.44-1.63-5.5-1.63-8.35q-.06-78.4,0-156.81c0-14.76-.13-29.52.08-44.28.06-4.53-1.4-7.41-5.38-9.69-9.74-5.57-19-12-28.65-17.68a19.73,19.73,0,0,1-6.86-6c-1-1.57-2.14-3.3-1-5.12s3.15-1.72,5-1.59c3.5.25,6.48,1.91,9.33,3.73,7.66,4.87,15.48,9.46,23.1,14.38,1.12.72,2.32,2.21,3.64,1.41s.69-2.54.7-3.89q0-34.12,0-68.26a32.18,32.18,0,0,1,.22-6c-.09-16.87-.11-33.74,0-50.61,0-4.13-1.15-7-4.88-9-2.84-1.51-5.5-3.36-8.28-5-1.64-1-3.17-1.18-4.37.67-5.87,9-15.35,13.45-24,18.83-11.35,7-22.72,14-33.92,21.25q-5.64,3.61-11.3,7.17a6.1,6.1,0,0,0-3.13,5.72c.06,2.31,0,4.61,0,6.92q0,151.49,0,303C610.83,1007.51,611.61,1010.9,609.1,1013.61Z" transform="translate(-369 -64)"/><path class="cls-7" d="M508.46,798.71c8.75-4.48,16.84-10,25.15-15.23,3.65-2.27,7.22-4.68,11.26-6.22,1.86-.7,4.27-1.63,5.56.15,1.5,2.06-.7,3.68-2.09,5-6.52,6.22-14.8,9.82-22.18,14.77-5.1,3.42-10.39,6.54-15.65,9.72a3.91,3.91,0,0,0-2.16,3.74c0,1.23,0,2.46,0,3.69q0,93.66,0,187.3c0,4-.48,8-.73,11.93l-7.49.06c0-7.84.08-15.68.08-23.52l0-273.53c0-6.3-.1-12.6.05-18.9a5.87,5.87,0,0,0-3.26-5.89c-16.87-10.27-33.59-20.77-50.38-31.17a23.51,23.51,0,0,1-6.74-6.81,2.81,2.81,0,0,1-.64-2.07c.38-1.07,1.59-.75,2.41-.62,4.93.78,9.31,3,13.48,5.61,13.42,8.3,26.74,16.76,40.16,25,4.82,3,4.92,2.85,4.93-2.69,0-28.44-.16-56.87.1-85.3a91.19,91.19,0,0,1,4-26.62c1.58,6.53,3.28,13,3.29,19.73,0,18.75,0,37.5,0,56.25,0,7.22.23,7.54,6.22,4.05,8.34-4.86,16.36-10.26,24.55-15.39,3.11-1.95,6.16-3.92,10.14-3.88,3,0,3,1.1,1.79,3.24a18.44,18.44,0,0,1-6.45,6.42c-10.45,6.43-20.77,13.08-31.4,19.19-3.83,2.21-4.88,5-4.87,9q0,26.06,0,52.11,0,38,0,76.08C507.55,795.54,507,797.34,508.46,798.71Z" transform="translate(-369 -64)"/><path class="cls-2" d="M798.25,470.2a149,149,0,0,0-18.93-15c-1.76-1.17-2.1-2.11-.5-3.93,7.76-8.78,15.11-17.89,21.09-28l.31-.13c.74,11.52.15,23,.32,34.55.06,4.16,0,8.31,0,12.46C799.88,472.06,799.07,471.23,798.25,470.2Z" transform="translate(-369 -64)"/><path class="cls-8" d="M798.25,470.2l1.71.87c1.09,1.37.57,3,.57,4.45q0,93.4,0,186.81c0,1.48.55,3.09-.58,4.44l-.77,0q0-94.63,0-189.28A24.57,24.57,0,0,0,798.25,470.2Z" transform="translate(-369 -64)"/><path class="cls-9" d="M795.51,358.56c0,18.82,0,37.65.11,56.47,0,1.7-1.33,3.42,0,5.12-1.51,1.35-1.83.21-1.89-1-.09-2,0-4,0-6,0-17,0-34.08.07-51.12C793.72,360.88,792.14,358.26,795.51,358.56Z" transform="translate(-369 -64)"/><path class="cls-10" d="M795.47,269.91l-.15.95c-.69,13-.24,26-.26,38.95,0,7.31-.6,14.64.4,21.93.82,2.06,4.62.48,4.5,3.69-1.66.48-3.22-.36-5.18.59-2.33,1.13-2-2.56-3.21-3.84-.86-.89-1.77-1.72.71-2.13,2.15-.35,1.32-2.8,1.32-4.35,0-17.08,0-34.15.07-51.22C793.68,272.82,792.78,270.59,795.47,269.91Z" transform="translate(-369 -64)"/><path class="cls-11" d="M801,122.08q0,37.14.07,74.28c0,2,.09,3.75-2.51,4.7-2.14.77-1,3.25-1.17,5-.22,2-.88.88-1.51.28-.27-2.91-.91-5.91,3.17-6.91,1.61-.4,1.07-2,1.07-3.12,0-8.39-.08-16.77-.13-25.15,0-13.64.08-27.28.17-40.91C800.13,127.5,799.8,124.7,801,122.08Z" transform="translate(-369 -64)"/><path class="cls-12" d="M799.86,237.65c.08,9.31,0,18.62.32,27.91.11,3.26-2.57,2.3-3.87,3.38,5-7.4,2.12-15.76,2.87-23.68C799.42,242.73,798.51,240.09,799.86,237.65Z" transform="translate(-369 -64)"/><path class="cls-13" d="M613.65,671.33l-4.57,2.51v-7.08C612.45,666.44,614,667.93,613.65,671.33Z" transform="translate(-369 -64)"/><path class="cls-6" d="M596.1,1013.61l9.22.29a14.67,14.67,0,0,1-10.14,0Z" transform="translate(-369 -64)"/><path class="cls-6" d="M706,1013.9l3.67-.28.93.32A3.66,3.66,0,0,1,706,1013.9Z" transform="translate(-369 -64)"/><path class="cls-14" d="M1234.73,541.21c9.47-4.68,18.43-10.28,27.56-15.57,1.15-.67,2.7-.9,3-2.57,4.32-3.29,6.29-8.89,11.32-11.47,3.4-1.35,5.57.39,7,3.11,2.68,5.06,5.74,9.94,7.66,15.38.3,1.4,0,2.95,1.16,4.13a6.1,6.1,0,0,1,.58,1.1,57.7,57.7,0,0,0,3.52,8.58c.3,1.88,1.81,2.84,3.07,4a25.08,25.08,0,0,1,4,6.17,409.52,409.52,0,0,1,15.4,39.4c4,12.38,2.71,24.94,2,37.42s-3.73,24.87-6.41,37.16c-.55,2.54-1.07,5.13-2.72,7.27-1.78,1.33-2.07,3.18-1.81,5.22-.35,2.7.41,4,3.4,3a12.45,12.45,0,0,1,4.82-.64,139.49,139.49,0,0,0,14.43-3.44c6.57-1.57,13.21-2.86,19.71-4.75,2.69-.78,3.61-1.88,3.14-4.89-1.24-8-2.65-16.07-3.91-24.11a23,23,0,0,1-.16-6c.89-8.49-1-16.62-3.11-24.73a6,6,0,0,1-.37-2.26c.85-6.22-2.44-11.94-2.1-18.09.14-2.58-2-4-3.21-5.91-3.49-7.43-4.78-15.54-7-23.35-3.26-11.42-5.64-23-4.64-35,.29-3.45.49-6.85,4.36-8.41a14.18,14.18,0,0,1,11.28,2.73,27.11,27.11,0,0,0,9.14,4.19c7,1.83,11.34,6.46,14.1,12.81,6.55,15,12,30.17,13,47,.85,14.11,4.76,28,7.35,42.06,5.39,29.23,10.67,58.48,15.14,87.87a49.58,49.58,0,0,1,.27,5c.27,2.48-1.58,2.51-3.18,2.61s-3-.41-4.27.76a9.37,9.37,0,0,1-1,.8,9.69,9.69,0,0,0-1.6,1.6c-5.14,5.6-5.25,7-1.06,14,2.05,4.62,3,9.54,4,14.45.71,5,3,9.74,2.24,14.94q6.76,28.85,13.55,57.69c10,42.5,20,85,30.13,127.45,1,4,.19,5.57-3.77,6a24.32,24.32,0,0,0-4.78,1.52c-6.76,4.09-14.22,5.5-22,5.65-3.42.81-6.92,1.41-10.26,2.49-3,1-4.3.19-5.4-2.75q-17.67-47.4-37.93-93.76c-6.28-14.32-12.56-28.66-20.83-42-1-1.67-2.24-3.23-3.81-5.47-2.47,7.56-3.11,14.69-3.84,21.73-3.54,33.78-5.15,67.7-7.58,101.56-.27,3.83-.73,7.65-1,11.48-.31,4.07-1.63,7.1-6.45,7.08a9.81,9.81,0,0,0-2.65.76c-5.84,3.81-12.7,3-19.13,4.15-1.32.24-2.74.15-4.09.46-4.09.07-5-3-5.74-6-2.93-11.79-5-23.75-7.15-35.71-4.81-27.25-9.19-54.57-12.79-82-.82-6.21-1.79-12.44-1.83-18.73.33-2.27-1-4.5-.16-6.78.75-5.91-1.59-11.46-2.08-17.25-1-12.16-2.78-24.26-4.21-36.39-.36-3-.72-6.07-.94-9.12-.14-1.93-1.53-2.51-2.91-3.18-3-1.44-7.42-1.59-8.6-4.74-1.46-3.92-.65-8.49-.27-12.77.79-9,1.25-18,2.68-26.88,1.19-7.38-4.15-10.69-7.87-15.06-1.09-1.28-2-3.26-4.23-3.25a4.68,4.68,0,0,1-2.28-1.76c-8.55-10.07-17-20.22-24.81-30.9-3.61-4.94-4.64-9.93-3.7-16,3.38-21.88,7.39-43.63,12.27-65.22a28,28,0,0,0,.55-10c-2-15,4.1-26.21,16.49-34.37A1.76,1.76,0,0,1,1234.73,541.21Z" transform="translate(-369 -64)"/><path class="cls-15" d="M1310.55,675.09c3.64-8.52,4.33-17.74,6.38-26.64,2.66-11.53,2.91-23.34,3.41-35.06.35-8.23-1.75-16.31-4.37-24.23-3.79-11.42-8.82-22.32-13.21-33.48-1.11-2.84-3.67-4.89-4.29-8-2-1.25-1.82-3.84-3.38-5.34-.59-2.71-2.35-4.94-3.06-7.59h0c-1.3-.88-1.07-2.54-1.87-3.68a160.3,160.3,0,0,0-9.18-17.94c-1.12-2-2.93-1-4.39-1.54,2.53-1.52,5.1-.41,7.57.06,15,2.83,30,5.51,44.87,9.13,1.66,1.48,3.89-.14,5.61,1a.54.54,0,0,1,.72.15c-5.15,7.95-3.43,16.88-2.17,25.06,2.17,14,6.35,27.68,10.52,41.27,3.25,5.9,3.25,12.65,4.36,19,1.89,10.85,4.09,21.71,4.82,32.75-.12,7.71,1.95,15.13,3.24,22.64.56,3.26-.14,6.71,1.58,9.84.47.83.38,2.16-1.46,2.66-7.79,2.14-15.51,4.57-23.6,5.43-5,.91-10.19,1.06-14.79,3.6-1.33.22-2.67.35-4,.67-5.74,1.41-5.74,1.43-5.23-4.22C1309.81,679,1308.92,676.61,1310.55,675.09Z" transform="translate(-369 -64)"/><path class="cls-14" d="M1264.14,471.48c-3.31-8.78-2.64-17.52.18-26.26,4.66-13.32,28.35-32.9,42.21-33.86,16.29-1.13,30.23,5.28,42.31,15.8a15.28,15.28,0,0,1,5.22,12.32c-.16,6.68-2.85,10.3-9.41,12.41a5.15,5.15,0,0,1-3.41,1.16,8.4,8.4,0,0,1-2.82-.29c-1.94-.53-3.75-1.5-5.8-1.66a8.23,8.23,0,0,1-1.31-.27c-6.49-2.63-11.91-.72-16.65,4-3.37,5.07-7.91,7.59-14.15,8.12-8,.7-9.13,2.59-7.57,10.55,1.42,7.25,4.32,14.14,5.55,21.42.5,2.91,2.13,6.4-1.68,8.61C1281.64,497.2,1269.59,487.7,1264.14,471.48Z" transform="translate(-369 -64)"/><path class="cls-16" d="M1338.57,451.6l2.39.26c2.53-.12,3.42,1.91,4.65,3.51h0c2.43,11.61,3.37,23.15-1.82,34.36a1.88,1.88,0,0,1-.06.75c-1.5,2.47-4.32,3.83-5.49,6.57l-.9.87c-1.84.86-3.14,2.43-4.68,3.67a21.16,21.16,0,0,1-6.48,3.68c-1.38,1.09-3.19,1-4.7,1.77-8.4.1-17,1.33-24.65-3.51,1.53-2.94.71-5.93.13-8.89-1.59-8.08-5.06-15.7-6.06-23.93-.82-6.62.35-8.46,7-8.9s12.42-2.38,16.28-8.23a11.07,11.07,0,0,0,2.12-.86c4.81-3.43,10.23-3.52,15.78-3a.36.36,0,0,1,.55.13C1334.33,451.4,1336.59,451,1338.57,451.6Z" transform="translate(-369 -64)"/><path class="cls-17" d="M1442.41,977c3.76-2.35,7.45-4.83,11.3-7a21.45,21.45,0,0,1,27.07,4.8c1.66,2,1.67,3.05-.65,4.53q-21.7,13.83-43.24,27.94c-1.82,1.19-2.77,1.13-3.94-.82a144.75,144.75,0,0,0-8.26-12.71c-2.08-2.76-1.83-4.48,1.1-6A39.12,39.12,0,0,1,1442.41,977Z" transform="translate(-369 -64)"/><path class="cls-18" d="M1289.25,1015.59l-.78-1.58c-1.08-5.63-.53-11.31-.46-17,0-2.58,1.63-4,4.15-3.93,6.4.14,12.8-.6,19.23.56,5.56,1,11.32-.25,16.95.56a20.67,20.67,0,0,1,17.2,15.56c.31,1.33.61,2.66.92,4-1.72,2-4.06,1.82-6.35,1.82Z" transform="translate(-369 -64)"/><path class="cls-19" d="M1397.3,758.12l-3.89-14.78c-1.81-2.22-1.07-5.24-2.42-7.69-.63-1.13.22-3,1.45-3.56,2.41-1.14,3.08-3.72,4.94-5.25l0,0c3.15-2.1,6-.59,8.9.73-.56,8-1.39,16.07,4.08,23a7.71,7.71,0,0,1,1.72,5.56,21,21,0,0,1-3.73,11.16h0c-6.53,3-6.45,3-8.93-4.15C1398.8,761.49,1398.46,759.62,1397.3,758.12Z" transform="translate(-369 -64)"/><path class="cls-20" d="M1291.17,975.8l23-3.46q-1.29,10.5-2.59,21c-6.09,1.23-12.23.33-18.34.47-1.93-1.29-1.89-3.36-1.92-5.3C1291.23,984.28,1291,980,1291.17,975.8Z" transform="translate(-369 -64)"/><path class="cls-21" d="M1225.53,78.15a10,10,0,0,1-8.82-.3c-2.2-1.24-4.5-.8-6.76-.8Q1033,77,856.14,77h-5.91c2.57-1.37,4.38-.89,6.09-.89q176.2,0,352.42,0c2,0,4-.07,6-.11l2.55.24a3.9,3.9,0,0,0,2.8.64Z" transform="translate(-369 -64)"/><path class="cls-22" d="M1442.41,977a172.72,172.72,0,0,1-16.62,10.7c-1.94-2.42-3.94-4.81-4.69-7.93a7.11,7.11,0,0,0-3.7-5.65c-1.37-.71-1.74-2.63-3.48-2.91,7.27-2.15,14.56-4.21,22-5.65C1438.21,969.31,1438.6,974.13,1442.41,977Z" transform="translate(-369 -64)"/><path class="cls-23" d="M1343.77,489.72c3-11.33,1.34-22.9,1.82-34.36C1351.54,464.65,1350.64,481.7,1343.77,489.72Z" transform="translate(-369 -64)"/><path class="cls-3" d="M1292.82,993.31l18.73,0c5.57.76,11.27-.76,16.79.89-11.46,0-22.93.23-34.39.08-3.58,0-5,1-4.67,4.66.31,4.26.07,8.56.2,12.83,0,1,.08,1.81-1,2.21l-.17-.28c-3.17-6.12-2.09-12.56-1-18.83C1287.84,992.12,1290.36,991.74,1292.82,993.31Z" transform="translate(-369 -64)"/><path class="cls-24" d="M1397.3,758.12a8.84,8.84,0,0,1,3.6,6.85c.14,3.88,1.23,5.53,4.81,2.39.81-.71,1.74-.38,2.61,0-1.5,3.23-6.1,2.23-7.53,5.55A95,95,0,0,1,1397.3,758.12Z" transform="translate(-369 -64)"/><path class="cls-24" d="M1408.31,767.35c.4-4,2.23-7.52,3.73-11.15C1413.45,760.8,1412,764.43,1408.31,767.35Z" transform="translate(-369 -64)"/><path class="cls-25" d="M1406.24,727.61l-8.9-.73c.26-2.68,2.34-2,3.86-1.89,1.75.18,3.38.55,4.47-1.28C1406.54,724.91,1406.2,726.29,1406.24,727.61Z" transform="translate(-369 -64)"/><path class="cls-26" d="M1417.4,974.13c3.1-.85,3.49,1.75,4.78,3.49s-1.08,1.29-1.08,2.16C1418.65,978.69,1418.16,976.32,1417.4,974.13Z" transform="translate(-369 -64)"/><path class="cls-27" d="M1338.22,497c0-3.76,3.24-4.72,5.49-6.57C1343,493.58,1340.38,495.13,1338.22,497Z" transform="translate(-369 -64)"/><path class="cls-28" d="M1332.64,501.58c.77-2.23,2-3.83,4.68-3.67C1336.12,499.59,1334.87,501.21,1332.64,501.58Z" transform="translate(-369 -64)"/><path class="cls-29" d="M1345.61,455.37c-2.16-.36-2.54-3.08-4.65-3.51l3.69,0Z" transform="translate(-369 -64)"/><path class="cls-30" d="M1321.46,507a6.12,6.12,0,0,1,4.71-1.77C1325.15,507.34,1323.29,507.13,1321.46,507Z" transform="translate(-369 -64)"/><path class="cls-31" d="M1334.65,521.82c-1.88-.25-4,.85-5.61-1C1331,520.88,1332.93,520.66,1334.65,521.82Z" transform="translate(-369 -64)"/><path class="cls-3" d="M1220.08,76.87c-1.38,1.73-2,.35-2.8-.64A2.78,2.78,0,0,1,1220.08,76.87Z" transform="translate(-369 -64)"/><path class="cls-2" d="M1233.87,541.22c-.65,1.86-2.31,2.8-3.72,3.92-10.48,8.27-13.89,19.12-11.57,32a14,14,0,0,1-.19,5.87c-5.39,23.49-9.92,47.14-13.3,71a11.84,11.84,0,0,0,2.23,9c7.07,10.08,14.8,19.63,22.75,29,1.37,1.62,3.17,2.93,3.85,5.08a43.14,43.14,0,0,1,.42,6.43q0,125.25,0,250.52c0,1.52.33,3.08-.36,4.55-.62,15-12.75,28.75-28.33,32.1-1.94.41-3.92.68-5.88,1-1.49.63-3,.3-4.56.3q-165,0-330,0c-1.64,0-3.38.51-4.94-.51a3.75,3.75,0,0,0-2.9-.67c-1.75.37-3.54.94-4.58-1.26a41.3,41.3,0,0,1-21.3-20.09c-.84-.37-1.42-.87-.91-1.89a3.24,3.24,0,0,0-.82-3c-1.7-1.69-1.32-4-1.66-6a47.26,47.26,0,0,1-.29-7.81q0-405.39,0-810.77c0-3.16-.48-6.42,1.17-9.39,3.8-15.84,13.13-26.32,29.33-30a38.14,38.14,0,0,1,8.22-.66c14.42-.06,28.85.14,43.27-.14,4.31-.09,5.66.81,5.62,5.42-.16,14.77,7.91,25.66,21.28,29.72,62.43.22,124.86.53,187.29-.16,13.3-4.74,20.6-15.06,20.52-30,0-4.19,1.17-5,5.13-5,16.44.24,32.89,0,49.33.19a36,36,0,0,1,33.6,25,17.28,17.28,0,0,1,.44,2.7c.48,1.21-.35,2.71.81,3.78,0,.53.09,1.07.14,1.61.72,1.62.36,3.34.36,5q0,197.2,0,394.4C1234.34,535.41,1234.15,538.31,1233.87,541.22Z" transform="translate(-369 -64)"/><path class="cls-2" d="M1292.82,993.31c-3.2-.22-4.48.94-4.3,4.44.28,5.31-.11,10.65-.22,16l-50.73.17h-10.5c-.38-1.23.46-1.09.88-1.27,23.42-10.06,35-28,35.17-53.3.23-28.57.1-57.14.13-85.71-.68-12.74-.13-25.48-.28-38.22,0-.8.1-1.55,1.19-1.51,6.51,46.34,12.79,92.72,23,138.44.54,2.42,1,4.16,4,3.47,2,.63,1.7,2.27,1.69,3.78Q1292.84,986.44,1292.82,993.31Z" transform="translate(-369 -64)"/><path class="cls-32" d="M829,130.62c-.09,4-.25,8-.25,12q0,399.54,0,799.06c0,7.67-.4,15.37,1,23-2.14,1.14-2.42-.69-2.51-1.87-.27-3.63-.35-7.28-.35-10.93q0-406.3,0-812.63C826.87,136.2,826.37,133,829,130.62Z" transform="translate(-369 -64)"/><path class="cls-33" d="M1019.41,102.8c8.46,0,16.91,0,25.36,0,5.38,0,7.4,2,7.43,7.07s-2.07,7.37-7.27,7.41q-25.59.17-51.17,0c-5.42,0-7.49-2.4-7.39-7.7.09-4.94,2.07-6.75,7.69-6.78C1002.51,102.76,1011,102.8,1019.41,102.8Z" transform="translate(-369 -64)"/><path class="cls-11" d="M799.94,666.77c0-4.75.15-9.51.15-14.26q0-88.43,0-176.84c0-1.53-.08-3.07-.13-4.6l.26-48c1.36,1.79.77,3.87.77,5.81q0,265.46-.12,530.9c0,4.16,3,7.45,2,11.63-.35,1.45.32,3.09-.72,4.45-1.87-5-2.08-10.13-2.08-15.34q0-144.57,0-289.15C800.09,669.84,800,668.3,799.94,666.77Z" transform="translate(-369 -64)"/><path class="cls-34" d="M1233.87,541.22c-1.17-3.18.06-6.37.06-9.56q-.12-196.29-.07-392.59c0-2,.06-4,.09-6,1.1,2.82.58,5.77.58,8.66q0,197.43,0,394.87c0,1.53.1,3.06.16,4.6Z" transform="translate(-369 -64)"/><path class="cls-35" d="M1124,134.81a29.31,29.31,0,0,1-10.87,1.58H946.65c-3.38,0-6.77,0-10-1.41a1.15,1.15,0,0,1,1.26-1q90.3.15,180.61.31C1120.37,134.26,1122.25,133.83,1124,134.81Z" transform="translate(-369 -64)"/><path class="cls-36" d="M860.24,991.52l334.43.08c1.69,0,3.38.09,5.07.14.13.53.61,1.39-.34,1.38-111.52-1.42-223.05-.19-334.57-.6-1.51,0-3-.13-4.54-.22-.07,0-.19-.23-.19-.35A1.2,1.2,0,0,1,860.24,991.52Z" transform="translate(-369 -64)"/><path class="cls-37" d="M1234,958.62q0-33.4-.09-66.8,0-93.52.13-187c0-2.55-2-5.12-.07-7.66l.9,1.92c-.09,2.3-.25,4.6-.25,6.89q0,123.17,0,246.33C1234.53,954.38,1234.91,956.57,1234,958.62Z" transform="translate(-369 -64)"/><path class="cls-38" d="M1076.15,110a7.38,7.38,0,0,1-7.25,7.44,7.7,7.7,0,0,1-7.55-7.71,7.4,7.4,0,0,1,7.58-7.09A7.17,7.17,0,0,1,1076.15,110Z" transform="translate(-369 -64)"/><path class="cls-6" d="M716.13,1013.9q40.14-.07,80.27-.15c12.6,0,25.21.09,37.82.14-1.47,1.23-3.23.76-4.88.76q-54.17,0-108.33,0C719.37,1014.65,717.61,1015.12,716.13,1013.9Z" transform="translate(-369 -64)"/><path class="cls-1" d="M795.46,331.74c-1-.95-.9-2.22-.9-3.44V273.9a4.14,4.14,0,0,1,.76-3Q795.4,301.29,795.46,331.74Z" transform="translate(-369 -64)"/><path class="cls-39" d="M1264.16,833.89c-1.26,5.42-.39,10.92-.55,16.39-.23,7.77-.25,15.56-.36,23.34-.66-15.31-.78-30.63,0-45.94C1262.29,829.93,1264.81,831.68,1264.16,833.89Z" transform="translate(-369 -64)"/><path class="cls-32" d="M830.55,967.61l.91,1.89c-.15.72-.09,1.88-.48,2.06-1.31.6-1.11-1-1.59-1.55C828.15,968.64,829.07,967.89,830.55,967.61Z" transform="translate(-369 -64)"/><path class="cls-36" d="M852.76,989.59c1.27,1.35,3.13.56,4.58,1.26-.93,2.58-3.3-.07-4.57,1.26C852,991.27,852.89,990.43,852.76,989.59Z" transform="translate(-369 -64)"/><path class="cls-34" d="M1233.81,131.47c-1.92-.91-1.71-2.27-.81-3.78C1234,128.79,1234,130.12,1233.81,131.47Z" transform="translate(-369 -64)"/><path class="cls-6" d="M494.58,1013.9c-1.16,1-2.6.76-3.95.76q-33.4,0-66.8,0c-1.35,0-2.79.29-3.95-.77Z" transform="translate(-369 -64)"/><path class="cls-2" d="M609.1,1013.61q0-79.33-.08-158.67,0-80.25-.08-160.51c0-3.47.81-5.67,4-7.31,4.36-2.24,8.46-5,12.67-7.52,2.58-1.14,4.4.59,6.29,1.77,13.76,8.59,28.31,15.29,44.29,18.55a147.74,147.74,0,0,0,21.35,3.15c1.7.1,3.39.17,4.64,1.57v82c-1.91.62-3.1-.63-4.3-1.38-8.62-5.33-17.16-10.77-25.75-16.14-3.26-2-6.52-4-10.66-3.75-2.34.17-2.7,1.12-1.6,2.9a19.16,19.16,0,0,0,6.44,6.44c11,6.71,21.92,13.57,33,20.18,2.78,1.65,3,3.87,3,6.6q-.07,36.88,0,73.77,0,69.16-.06,138.32l-.89.3a4.8,4.8,0,0,1-1.8.3H611.79a4.71,4.71,0,0,1-1.79-.3Z" transform="translate(-369 -64)"/><path class="cls-6" d="M610,1013.9h91.32c-1.32,1.13-2.92.76-4.42.76q-41.25,0-82.49,0C612.92,1014.66,611.31,1015,610,1013.9Z" transform="translate(-369 -64)"/><path class="cls-6" d="M509.4,1013.9h83.94c-1.32,1.13-2.92.76-4.42.76q-37.56,0-75.11,0C512.32,1014.66,510.72,1015,509.4,1013.9Z" transform="translate(-369 -64)"/><path class="cls-1" d="M702.2,704.64a133.12,133.12,0,0,1-58.63-14.92c-6.11-3.18-11.62-7.35-17.94-10.11,15-9.32,29.93-18.58,44.83-28,5.09-3.2,9.84-6.88,12.3-12.66.76-1.78,1.66-1.92,3.16-1q7.43,4.61,14.88,9.14c1.87,1.12,1.46,2.89,1.46,4.52Q702.26,678.15,702.2,704.64Z" transform="translate(-369 -64)"/><path class="cls-40" d="M1304.94,732.27c-4.79,8.17-11.5,10.85-18.62,7.43-2.42-1.16-4.93-2.73-5.48-5.26-1.19-5.49-5.3-7.88-9.54-10.26-2.19-1.23-2.77-2.51-1.19-4.64,2.34-3.14,4.57-6.36,6.85-9.54a8.55,8.55,0,0,0,3-3.62h0c1.62-1.16,2.74-.41,3.91.85,1.64,1.78,3.53,3.31,5.18,5.1s3.12,3.17,5.68,3.36c3.47.27,5.86,2.8,8.54,4.68,1.3.44,1.26,1.69,1.64,2.69h0C1306.25,726.12,1307.14,729.19,1304.94,732.27Z" transform="translate(-369 -64)"/><path class="cls-41" d="M1352.9,640c-2.44-6.77-2.33-14-3.64-21-1.56-8.32-2.66-16.73-5.12-24.88-.56-1.83-.3-3.92-.43-5.89,3.28,1.7,3.26,4.66,3.89,7.91,1.33,6.93,1.59,14,3.06,20.93C1352.22,624.57,1354,632.23,1352.9,640Z" transform="translate(-369 -64)"/><path class="cls-42" d="M1245.57,639.29c4.38,5.87,2.75,12.08,3.06,18.15C1242.36,653.38,1241.41,648.09,1245.57,639.29Z" transform="translate(-369 -64)"/><path class="cls-43" d="M1303.44,721.08c-6.28-4.34-14.57-5.5-19.29-12.33-.92-1.34-2.23-2.59-4.19-2.36.87-1.83,1.86-2.26,3.39-.53,1.31,1.49,2.86,2.78,4.25,4.21,2.36,2.42,4.61,4.7,8.4,5,2.78.25,4.84,2.47,6.88,4.34C1303.64,719.8,1303.67,720.39,1303.44,721.08Z" transform="translate(-369 -64)"/><path class="cls-25" d="M1397.38,726.84c-.3.84-.35,2.09-.94,2.44-6.18,3.62-4.21,8.91-3,14.06C1387.84,737.16,1389.32,731,1397.38,726.84Z" transform="translate(-369 -64)"/><path class="cls-44" d="M1317.87,684.21c4.12-4.51,9.55-3.66,14.79-3.6A57.63,57.63,0,0,1,1317.87,684.21Z" transform="translate(-369 -64)"/><path class="cls-45" d="M1304.94,732.27a25,25,0,0,0,0-9.21C1307.56,726.11,1307.57,729.73,1304.94,732.27Z" transform="translate(-369 -64)"/><path class="cls-46" d="M1292,534.76a17,17,0,0,1,3.69,7.36,1.32,1.32,0,0,1,0,1.9A14.23,14.23,0,0,1,1292,534.76Z" transform="translate(-369 -64)"/><path class="cls-45" d="M1303.44,721.08c-.18-.54-.37-1.09-.56-1.63,1.07,0,1.75-2.22,2.93-.79,1.32,1.61-.4,3-.9,4.41Z" transform="translate(-369 -64)"/><path class="cls-47" d="M1295.69,544l0-1.9a10.58,10.58,0,0,1,2.75,5.57C1295.64,547.91,1295.64,546,1295.69,544Z" transform="translate(-369 -64)"/><path class="cls-48" d="M1310.55,675.09c0,2.08-.27,4-1.88,5.57C1309.16,678.76,1307.2,676,1310.55,675.09Z" transform="translate(-369 -64)"/><path class="cls-43" d="M1280,706.38c.65,2.58-1,3.28-3,3.62A9,9,0,0,1,1280,706.38Z" transform="translate(-369 -64)"/><path class="cls-46" d="M1290.17,531.08a5,5,0,0,1,1.87,3.68C1289.68,534.41,1290.29,532.56,1290.17,531.08Z" transform="translate(-369 -64)"/><path class="cls-45" d="M1308.21,715.13a2.94,2.94,0,0,1-1.12.32.49.49,0,0,1-.28-.88,2,2,0,0,1,1.13-.28C1308,714.29,1308.1,714.76,1308.21,715.13Z" transform="translate(-369 -64)"/><path class="cls-29" d="M1332.07,449.75c-2.66.94-5.12,2.14-8.19.63-.94-.47-3.06,1.37-4.59,2.24s-3.2,1.79-5.12.95C1319.3,448.36,1325.23,446.93,1332.07,449.75Z" transform="translate(-369 -64)"/><path class="cls-29" d="M1338.57,451.6c-2-.41-4.74,1.54-6-1.72A13.83,13.83,0,0,1,1338.57,451.6Z" transform="translate(-369 -64)"/><path class="cls-1" d="M1031.13,468.33H866.87c-9.08,0-13.23-4.09-13.23-13.18q0-121.57,0-243.15c0-9.09,4.17-13.15,13.39-13.15h328.06c10.39,0,14.41,3.94,14.75,14.44,0,.92,0,1.84,0,2.76q0,116.5.06,233c0,3.88-.73,7.63-1.14,11.43-.49,4.48-5.5,7.82-11.07,7.85-11.69.05-23.38,0-35.07,0Z" transform="translate(-369 -64)"/><path class="cls-15" d="M928.64,832.05l2.18-2.1c3.06-1.3,4.47-4.57,7.29-6.13,2.46-1.37,4.24-4.06,8-2.77,1.52.52,2.91-2.5,4.42-3.84a.38.38,0,0,1,.59-.13,96.26,96.26,0,0,1,11.88-.83h138.24a61.71,61.71,0,0,1,10.94.88.67.67,0,0,1,.78.14c2.33,2.33,5.49,2.65,8.44,3.49l0,0c.62,1.21,1.86,1.42,3,1.86,12.28,8.29,17.62,20,16.46,34.57-1.21,15.21-9.36,25.79-23.16,32.11-1.52.7-3.12,1.24-4.68,1.85a5.21,5.21,0,0,1-2.47,1.12c-23.93.28-47.85.07-71.78.11q-34.51.06-69,0a147.25,147.25,0,0,1-16.54-.48,7.55,7.55,0,0,1-2.6-.7c-6.26-2.18-12.25-4.82-16.76-10a3.89,3.89,0,0,0-2.75-3c-4.69-4.62-6.66-10.6-8.39-16.71a19.87,19.87,0,0,1,0-14.78l.24-1.8C923.46,840,924.43,835.31,928.64,832.05Z" transform="translate(-369 -64)"/><path class="cls-1" d="M1030.79,694.43H905.32a13.51,13.51,0,0,1-13.72-11.2c-1.16-6.12,2.35-12.15,8.46-14.78a11.94,11.94,0,0,1,5-.76q125.93,0,251.86,0c5.34,0,10,1.78,12.86,6.57a12.75,12.75,0,0,1-.49,14.69c-3.09,4.49-7.73,5.39-12.53,5.42-22.6.12-45.21,0-67.81,0Z" transform="translate(-369 -64)"/><path class="cls-1" d="M1031.66,577.22q-63.42,0-126.84,0c-5.34,0-10.75-3.69-12.23-8.16-2.3-6.92-1.18-11.68,3.9-15.67,3.17-2.48,7-2.91,10.89-2.91H1156c7.94,0,12.67,2.88,15,9,3.23,8.65-3.53,17.68-13.37,17.7q-35.28.07-70.57,0Z" transform="translate(-369 -64)"/><path class="cls-1" d="M1031.46,655.65q-60,0-120,0a50.34,50.34,0,0,1-10-1c-6.4-1.29-10.49-7.1-10-14,.44-5.74,6-11.32,11.8-11.76.76,0,1.54,0,2.3,0q126.21,0,252.42,0c5.27,0,9.43,1.91,11.92,6.4s2.92,9.33-.29,13.93c-3.79,5.41-9.37,6.46-15.41,6.46Z" transform="translate(-369 -64)"/><path class="cls-1" d="M1031.78,590.12c42,0,84,.23,126-.16,9.53-.09,13.74,7.07,14.1,13.14.42,7.31-5.83,12.87-13.93,12.88q-126.65,0-253.3,0a13.09,13.09,0,0,1-13.14-13.18c.1-7.3,5.75-12.67,13.43-12.67Z" transform="translate(-369 -64)"/><path class="cls-1" d="M945.33,707.33c13.37,0,26.74,0,40.11,0,8.12,0,12.8,4.85,13.16,12.77.34,7.34-6.86,13.21-13.06,13.17-27.35-.18-54.7,0-82.06-.11-6.47,0-11.93-5.92-12-12.68-.09-7.26,5-13.07,11.92-13.12C917.36,707.26,931.35,707.34,945.33,707.33Z" transform="translate(-369 -64)"/><ellipse class="cls-34" cx="861.07" cy="269.12" rx="0.65" ry="286.69"/><path class="cls-37" d="M1230.07,699.36c1.59,1.88,1,3.63,1,5.22q.06,123.38,0,246.76c0,1.54.87,3.45-1,4.6-.27.17-1.15-.3-1.53-.68a3.53,3.53,0,0,1-.37-5c1.57-1.94,1-4.12,1-6.2q0-119.22,0-238.45C1229.29,703.68,1228.75,701.65,1230.07,699.36Z" transform="translate(-369 -64)"/><ellipse class="cls-49" cx="664.6" cy="744.77" rx="103.32" ry="0.65"/><path class="cls-50" d="M1092.66,894.7c-.42,2.18-2.15,1.83-3.63,1.83H963.19c-1.22,0-2.49.14-3.43-.92,0-1.71,1.29-1.92,2.49-2.13a27.12,27.12,0,0,1,4.6-.16q59.42,0,118.83,0c2.12,0,4.31-.35,6.33.69Z" transform="translate(-369 -64)"/><path class="cls-51" d="M1091.85,899.8H960.54v-.92h131.35Z" transform="translate(-369 -64)"/><path class="cls-50" d="M1111.27,891.05l1.7.08c-1.26,5.27-5.2,7.42-11.06,5a24.25,24.25,0,0,0-9.25-1.46c-1.58-.88-3.31-.45-5-.45q-63.1,0-126.21,0c-1.2,0-2.46.35-3.57-.45h0c.73-3,3.22-1.76,4.92-1.78,14.88-.11,29.76-.06,44.64-.06q44.19,0,88.36,0c3.52,0,7,.55,10.55-.07C1108,891.18,1109.73,891.89,1111.27,891.05Z" transform="translate(-369 -64)"/><path class="cls-51" d="M1107.44,892.15c-3.13,2-6.47.79-9.77.79q-68.16-.12-136.32-.05c-1.21,0-2.48-.16-3.43.88-2.34-1.19-5.51,0-7.36-2.58l1.64-.13c1.61.79,3.32.39,5,.39q72.72,0,145.42.06C1104.21,891.51,1106,890.83,1107.44,892.15Z" transform="translate(-369 -64)"/><path class="cls-52" d="M1112.19,817.13l-161.06,0c1.7-1.2,3.64-1,5.55-.92,1.32-.62,2.72-.35,4.09-.35q71.33,0,142.67,0c1.35,0,2.77-.32,4.06.41C1109.13,816.19,1110.79,816,1112.19,817.13Z" transform="translate(-369 -64)"/><path class="cls-15" d="M1107.5,816.22l-150.81-.06c1.72-.9,3.59-.65,5.41-.65q68.85,0,137.68,0C1102.36,815.51,1105,815.19,1107.5,816.22Z" transform="translate(-369 -64)"/><path class="cls-51" d="M957.92,893.78q64.5,0,129,0c1.92,0,4-.69,5.73.89q-63.59,0-127.17,0c-1.92,0-4-.69-5.73.89Z" transform="translate(-369 -64)"/><path class="cls-53" d="M950.54,817.21c-.5,3.48-1.69,5.4-6,4.55-2.51-.5-4.85,1.72-6.9,3.59s-3.22,5.08-6.82,4.6A32.6,32.6,0,0,1,950.54,817.21Z" transform="translate(-369 -64)"/><path class="cls-54" d="M922.63,846.7a45.53,45.53,0,0,0,0,14.78c-2,0-1.26,2.53-2.53,3.22a2,2,0,0,1-.46-3c2.85-4.06.06-8.59,1.15-12.8.12-.48-.67-1.28-1.17-1.8s-2.47-.39-1.47-2.06a2.77,2.77,0,0,1,1.7-1.36c1.3-.11.86,1.33,1.35,2A5.74,5.74,0,0,0,922.63,846.7Z" transform="translate(-369 -64)"/><path class="cls-54" d="M928.64,832.05a80,80,0,0,0-5.77,12.85c-.09-1.36.09-2.76-1-3.87-.72-.69-1.09-2.23-.53-2.45C924.58,837.27,924.4,832.16,928.64,832.05Z" transform="translate(-369 -64)"/><path class="cls-55" d="M1121.41,820.76c-3.37.17-7,.87-8.44-3.49A17.4,17.4,0,0,1,1121.41,820.76Z" transform="translate(-369 -64)"/><path class="cls-37" d="M1226.65,693.77c1.21,2,1.66,3.43-.27,5.17C1225.19,697,1225.45,695.6,1226.65,693.77Z" transform="translate(-369 -64)"/><path class="cls-34" d="M1226.38,543.61a5.68,5.68,0,0,0-.14-5.39C1229.13,541,1229.13,541,1226.38,543.61Z" transform="translate(-369 -64)"/><path class="cls-56" d="M931.05,878.19c2.38-.3,3.05.94,2.75,3A7.12,7.12,0,0,1,931.05,878.19Z" transform="translate(-369 -64)"/><path class="cls-55" d="M1124.35,822.6c-1-.52-3.91,1.84-3-1.86A4.27,4.27,0,0,1,1124.35,822.6Z" transform="translate(-369 -64)"/><path class="cls-34" d="M1226.9,127.76a2.52,2.52,0,0,1,0-2.81C1227.5,126,1227.69,126.85,1226.9,127.76Z" transform="translate(-369 -64)"/><path class="cls-57" d="M1107.44,892.15q-72,.06-143.92.08c-3.79,0-7.67.42-11.32-1.17h159.07Z" transform="translate(-369 -64)"/></svg>